<mxfile host="app.diagrams.net" modified="2023-09-19T22:08:45.789Z" agent="Mozilla/5.0 (Macintosh; Intel Mac OS X 10_15_7) AppleWebKit/537.36 (KHTML, like Gecko) Chrome/117.0.0.0 Safari/537.36" etag="6rqvRFJ4g6K0-TMWeJqJ" version="21.7.5" type="device">
  <diagram id="D15i5GMSVcfsVG8WxQfW" name="Page-1">
    <mxGraphModel dx="3077" dy="1887" grid="0" gridSize="10" guides="1" tooltips="1" connect="1" arrows="1" fold="1" page="1" pageScale="1" pageWidth="1169" pageHeight="827" math="0" shadow="0">
      <root>
        <mxCell id="0" />
        <mxCell id="1" parent="0" />
        <mxCell id="7" style="edgeStyle=none;html=1;exitX=0.5;exitY=1;exitDx=0;exitDy=0;entryX=0;entryY=0.5;entryDx=0;entryDy=0;endArrow=block;endFill=1;rounded=0;" parent="1" source="2" target="3" edge="1">
          <mxGeometry relative="1" as="geometry">
            <Array as="points">
              <mxPoint x="163" y="380" />
            </Array>
          </mxGeometry>
        </mxCell>
        <mxCell id="8" style="edgeStyle=none;rounded=0;html=1;exitX=0.5;exitY=1;exitDx=0;exitDy=0;entryX=0;entryY=0.5;entryDx=0;entryDy=0;endArrow=block;endFill=1;" parent="1" source="2" target="5" edge="1">
          <mxGeometry relative="1" as="geometry">
            <Array as="points">
              <mxPoint x="163" y="450" />
            </Array>
          </mxGeometry>
        </mxCell>
        <mxCell id="9" style="edgeStyle=none;rounded=0;html=1;exitX=0.5;exitY=1;exitDx=0;exitDy=0;entryX=1;entryY=0.5;entryDx=0;entryDy=0;endArrow=block;endFill=1;" parent="1" source="2" target="4" edge="1">
          <mxGeometry relative="1" as="geometry">
            <Array as="points">
              <mxPoint x="163" y="410" />
            </Array>
          </mxGeometry>
        </mxCell>
        <mxCell id="10" style="edgeStyle=none;rounded=0;html=1;exitX=0.5;exitY=1;exitDx=0;exitDy=0;entryX=1;entryY=0.5;entryDx=0;entryDy=0;endArrow=block;endFill=1;" parent="1" source="2" target="6" edge="1">
          <mxGeometry relative="1" as="geometry">
            <Array as="points">
              <mxPoint x="163" y="480" />
            </Array>
          </mxGeometry>
        </mxCell>
        <mxCell id="45" style="edgeStyle=none;html=1;exitX=0.5;exitY=1;exitDx=0;exitDy=0;entryX=0;entryY=0.5;entryDx=0;entryDy=0;rounded=0;endArrow=block;endFill=1;" parent="1" source="2" target="42" edge="1">
          <mxGeometry relative="1" as="geometry">
            <Array as="points">
              <mxPoint x="163" y="519" />
            </Array>
          </mxGeometry>
        </mxCell>
        <mxCell id="46" style="edgeStyle=none;rounded=0;html=1;exitX=0.5;exitY=1;exitDx=0;exitDy=0;entryX=1;entryY=0.5;entryDx=0;entryDy=0;endArrow=block;endFill=1;" parent="1" source="2" edge="1">
          <mxGeometry relative="1" as="geometry">
            <Array as="points">
              <mxPoint x="163" y="550" />
            </Array>
            <mxPoint x="110.99999999999682" y="550" as="targetPoint" />
          </mxGeometry>
        </mxCell>
        <mxCell id="47" style="edgeStyle=none;rounded=0;html=1;exitX=0.5;exitY=1;exitDx=0;exitDy=0;entryX=0;entryY=0.5;entryDx=0;entryDy=0;endArrow=block;endFill=1;" parent="1" source="2" target="44" edge="1">
          <mxGeometry relative="1" as="geometry">
            <Array as="points">
              <mxPoint x="163" y="590" />
            </Array>
          </mxGeometry>
        </mxCell>
        <mxCell id="2" value="&lt;b&gt;Пользователь&lt;/b&gt;" style="whiteSpace=wrap;html=1;" parent="1" vertex="1">
          <mxGeometry x="103" y="285" width="120" height="60" as="geometry" />
        </mxCell>
        <mxCell id="3" value="id" style="ellipse;whiteSpace=wrap;html=1;" parent="1" vertex="1">
          <mxGeometry x="210" y="355" width="130" height="50" as="geometry" />
        </mxCell>
        <mxCell id="4" value="Имя" style="ellipse;whiteSpace=wrap;html=1;" parent="1" vertex="1">
          <mxGeometry x="-19" y="385" width="130" height="50" as="geometry" />
        </mxCell>
        <mxCell id="5" value="Фамилия" style="ellipse;whiteSpace=wrap;html=1;" parent="1" vertex="1">
          <mxGeometry x="210" y="425" width="130" height="50" as="geometry" />
        </mxCell>
        <mxCell id="6" value="Ник" style="ellipse;whiteSpace=wrap;html=1;" parent="1" vertex="1">
          <mxGeometry x="-19" y="455" width="130" height="50" as="geometry" />
        </mxCell>
        <mxCell id="31" value="&lt;b&gt;Сообщество&lt;/b&gt;" style="whiteSpace=wrap;html=1;" parent="1" vertex="1">
          <mxGeometry x="559.5" y="285" width="120" height="60" as="geometry" />
        </mxCell>
        <mxCell id="42" value="email" style="ellipse;whiteSpace=wrap;html=1;" parent="1" vertex="1">
          <mxGeometry x="205" y="494" width="130" height="50" as="geometry" />
        </mxCell>
        <mxCell id="44" value="Дата создания" style="ellipse;whiteSpace=wrap;html=1;" parent="1" vertex="1">
          <mxGeometry x="210" y="565" width="130" height="50" as="geometry" />
        </mxCell>
        <mxCell id="mRLEdCKrSsYtnquP3Ihm-72" value="Имеет" style="rhombus;whiteSpace=wrap;html=1;" parent="1" vertex="1">
          <mxGeometry x="-443" y="163" width="80" height="50" as="geometry" />
        </mxCell>
        <mxCell id="mRLEdCKrSsYtnquP3Ihm-175" style="edgeStyle=none;html=1;exitX=0.5;exitY=1;exitDx=0;exitDy=0;entryX=0;entryY=0.5;entryDx=0;entryDy=0;endArrow=block;endFill=1;rounded=0;" parent="1" target="mRLEdCKrSsYtnquP3Ihm-180" edge="1">
          <mxGeometry relative="1" as="geometry">
            <Array as="points">
              <mxPoint x="618.5" y="379" />
            </Array>
            <mxPoint x="618.5" y="344" as="sourcePoint" />
          </mxGeometry>
        </mxCell>
        <mxCell id="mRLEdCKrSsYtnquP3Ihm-176" style="edgeStyle=none;rounded=0;html=1;exitX=0.5;exitY=1;exitDx=0;exitDy=0;entryX=0;entryY=0.5;entryDx=0;entryDy=0;endArrow=block;endFill=1;" parent="1" target="mRLEdCKrSsYtnquP3Ihm-182" edge="1">
          <mxGeometry relative="1" as="geometry">
            <Array as="points">
              <mxPoint x="618.5" y="449" />
            </Array>
            <mxPoint x="618.5" y="344" as="sourcePoint" />
          </mxGeometry>
        </mxCell>
        <mxCell id="mRLEdCKrSsYtnquP3Ihm-177" style="edgeStyle=none;rounded=0;html=1;exitX=0.5;exitY=1;exitDx=0;exitDy=0;entryX=1;entryY=0.5;entryDx=0;entryDy=0;endArrow=block;endFill=1;" parent="1" edge="1">
          <mxGeometry relative="1" as="geometry">
            <Array as="points">
              <mxPoint x="618.5" y="409" />
            </Array>
            <mxPoint x="618.5" y="344" as="sourcePoint" />
            <mxPoint x="566.5" y="409" as="targetPoint" />
          </mxGeometry>
        </mxCell>
        <mxCell id="mRLEdCKrSsYtnquP3Ihm-178" style="edgeStyle=none;rounded=0;html=1;exitX=0.5;exitY=1;exitDx=0;exitDy=0;entryX=1;entryY=0.5;entryDx=0;entryDy=0;endArrow=block;endFill=1;" parent="1" edge="1">
          <mxGeometry relative="1" as="geometry">
            <Array as="points">
              <mxPoint x="618.5" y="482" />
            </Array>
            <mxPoint x="618.5" y="347" as="sourcePoint" />
            <mxPoint x="566.5" y="482" as="targetPoint" />
          </mxGeometry>
        </mxCell>
        <mxCell id="mRLEdCKrSsYtnquP3Ihm-180" value="id" style="ellipse;whiteSpace=wrap;html=1;" parent="1" vertex="1">
          <mxGeometry x="665.5" y="354" width="130" height="50" as="geometry" />
        </mxCell>
        <mxCell id="mRLEdCKrSsYtnquP3Ihm-181" value="Названия" style="ellipse;whiteSpace=wrap;html=1;" parent="1" vertex="1">
          <mxGeometry x="437" y="385" width="130" height="50" as="geometry" />
        </mxCell>
        <mxCell id="mRLEdCKrSsYtnquP3Ihm-182" value="Описание" style="ellipse;whiteSpace=wrap;html=1;" parent="1" vertex="1">
          <mxGeometry x="665.5" y="424" width="130" height="50" as="geometry" />
        </mxCell>
        <mxCell id="mRLEdCKrSsYtnquP3Ihm-183" value="Дата создания" style="ellipse;whiteSpace=wrap;html=1;" parent="1" vertex="1">
          <mxGeometry x="437" y="454" width="130" height="50" as="geometry" />
        </mxCell>
        <mxCell id="mRLEdCKrSsYtnquP3Ihm-187" value="" style="endArrow=classic;html=1;rounded=0;entryX=1;entryY=0.5;entryDx=0;entryDy=0;exitX=0.5;exitY=0;exitDx=0;exitDy=0;" parent="1" source="2" target="mRLEdCKrSsYtnquP3Ihm-72" edge="1">
          <mxGeometry width="50" height="50" relative="1" as="geometry">
            <mxPoint x="143" y="278" as="sourcePoint" />
            <mxPoint x="-9" y="303" as="targetPoint" />
            <Array as="points">
              <mxPoint x="163" y="188" />
            </Array>
          </mxGeometry>
        </mxCell>
        <mxCell id="mRLEdCKrSsYtnquP3Ihm-189" value="1" style="text;html=1;align=center;verticalAlign=middle;resizable=0;points=[];autosize=1;strokeColor=none;fillColor=none;" parent="1" vertex="1">
          <mxGeometry x="135" y="255" width="25" height="25" as="geometry" />
        </mxCell>
        <mxCell id="mRLEdCKrSsYtnquP3Ihm-191" value="Создает" style="rhombus;whiteSpace=wrap;html=1;" parent="1" vertex="1">
          <mxGeometry x="380" y="290" width="80" height="50" as="geometry" />
        </mxCell>
        <mxCell id="mRLEdCKrSsYtnquP3Ihm-192" value="" style="endArrow=classic;html=1;rounded=0;exitX=1;exitY=0.5;exitDx=0;exitDy=0;entryX=0;entryY=0.5;entryDx=0;entryDy=0;" parent="1" source="2" target="mRLEdCKrSsYtnquP3Ihm-191" edge="1">
          <mxGeometry width="50" height="50" relative="1" as="geometry">
            <mxPoint x="318" y="365" as="sourcePoint" />
            <mxPoint x="368" y="315" as="targetPoint" />
          </mxGeometry>
        </mxCell>
        <mxCell id="mRLEdCKrSsYtnquP3Ihm-194" value="" style="endArrow=classic;html=1;rounded=0;entryX=0;entryY=0.5;entryDx=0;entryDy=0;exitX=1;exitY=0.5;exitDx=0;exitDy=0;" parent="1" source="mRLEdCKrSsYtnquP3Ihm-191" target="31" edge="1">
          <mxGeometry width="50" height="50" relative="1" as="geometry">
            <mxPoint x="318" y="365" as="sourcePoint" />
            <mxPoint x="368" y="315" as="targetPoint" />
          </mxGeometry>
        </mxCell>
        <mxCell id="mRLEdCKrSsYtnquP3Ihm-195" value="1" style="text;html=1;align=center;verticalAlign=middle;resizable=0;points=[];autosize=1;strokeColor=none;fillColor=none;" parent="1" vertex="1">
          <mxGeometry x="221.5" y="290" width="25" height="25" as="geometry" />
        </mxCell>
        <mxCell id="mRLEdCKrSsYtnquP3Ihm-196" value="N" style="edgeLabel;html=1;align=center;verticalAlign=middle;resizable=0;points=[];" parent="1" vertex="1" connectable="0">
          <mxGeometry x="991" y="-520" as="geometry">
            <mxPoint x="-441" y="822" as="offset" />
          </mxGeometry>
        </mxCell>
        <mxCell id="mRLEdCKrSsYtnquP3Ihm-205" value="M" style="text;html=1;align=center;verticalAlign=middle;resizable=0;points=[];autosize=1;strokeColor=none;fillColor=none;" parent="1" vertex="1">
          <mxGeometry x="636.5" y="260" width="29" height="25" as="geometry" />
        </mxCell>
        <mxCell id="mRLEdCKrSsYtnquP3Ihm-210" value="N" style="text;html=1;align=center;verticalAlign=middle;resizable=0;points=[];autosize=1;strokeColor=none;fillColor=none;" parent="1" vertex="1">
          <mxGeometry x="72" y="330" width="27" height="25" as="geometry" />
        </mxCell>
        <mxCell id="Jvw1sEuxNgnwTNWIgOwx-73" value="&lt;b&gt;Пост&lt;/b&gt;" style="whiteSpace=wrap;html=1;" parent="1" vertex="1">
          <mxGeometry x="360.5" y="43.25" width="120" height="60" as="geometry" />
        </mxCell>
        <mxCell id="Jvw1sEuxNgnwTNWIgOwx-76" value="id" style="ellipse;whiteSpace=wrap;html=1;" parent="1" vertex="1">
          <mxGeometry x="252.5" y="-18.25" width="130" height="50" as="geometry" />
        </mxCell>
        <mxCell id="Jvw1sEuxNgnwTNWIgOwx-77" value="Описание" style="ellipse;whiteSpace=wrap;html=1;" parent="1" vertex="1">
          <mxGeometry x="456.5" y="-56.25" width="130" height="50" as="geometry" />
        </mxCell>
        <mxCell id="Jvw1sEuxNgnwTNWIgOwx-78" value="Дата создания" style="ellipse;whiteSpace=wrap;html=1;" parent="1" vertex="1">
          <mxGeometry x="246.5" y="-121.25" width="130" height="50" as="geometry" />
        </mxCell>
        <mxCell id="Jvw1sEuxNgnwTNWIgOwx-79" value="" style="endArrow=classic;html=1;rounded=0;entryX=1;entryY=0.5;entryDx=0;entryDy=0;" parent="1" source="Jvw1sEuxNgnwTNWIgOwx-73" target="Jvw1sEuxNgnwTNWIgOwx-78" edge="1">
          <mxGeometry width="50" height="50" relative="1" as="geometry">
            <mxPoint x="-104.5" y="52.75" as="sourcePoint" />
            <mxPoint x="-156.5" y="-166.25" as="targetPoint" />
            <Array as="points">
              <mxPoint x="420.5" y="-96.25" />
            </Array>
          </mxGeometry>
        </mxCell>
        <mxCell id="Jvw1sEuxNgnwTNWIgOwx-80" value="" style="endArrow=classic;html=1;rounded=0;entryX=0;entryY=0.5;entryDx=0;entryDy=0;" parent="1" edge="1">
          <mxGeometry width="50" height="50" relative="1" as="geometry">
            <mxPoint x="420.5" y="-31.25" as="sourcePoint" />
            <mxPoint x="455.5000000000123" y="-31.25" as="targetPoint" />
          </mxGeometry>
        </mxCell>
        <mxCell id="Jvw1sEuxNgnwTNWIgOwx-81" value="" style="endArrow=classic;html=1;rounded=0;entryX=1;entryY=0.5;entryDx=0;entryDy=0;" parent="1" target="Jvw1sEuxNgnwTNWIgOwx-76" edge="1">
          <mxGeometry width="50" height="50" relative="1" as="geometry">
            <mxPoint x="419.5" y="6.75" as="sourcePoint" />
            <mxPoint x="510.5" y="-15.25" as="targetPoint" />
          </mxGeometry>
        </mxCell>
        <mxCell id="lzOb1V3oi55egU45rJ-Z-50" value="В друзьях" style="rhombus;whiteSpace=wrap;html=1;" parent="1" vertex="1">
          <mxGeometry x="123" y="682" width="80" height="50" as="geometry" />
        </mxCell>
        <mxCell id="lzOb1V3oi55egU45rJ-Z-51" value="" style="endArrow=classic;html=1;rounded=0;exitX=1;exitY=0.75;exitDx=0;exitDy=0;entryX=1;entryY=0.5;entryDx=0;entryDy=0;" parent="1" source="2" target="lzOb1V3oi55egU45rJ-Z-50" edge="1">
          <mxGeometry width="50" height="50" relative="1" as="geometry">
            <mxPoint x="274" y="392" as="sourcePoint" />
            <mxPoint x="324" y="342" as="targetPoint" />
            <Array as="points">
              <mxPoint x="370" y="330" />
              <mxPoint x="370" y="707" />
            </Array>
          </mxGeometry>
        </mxCell>
        <mxCell id="lzOb1V3oi55egU45rJ-Z-52" value="" style="endArrow=classic;html=1;rounded=0;entryX=0;entryY=0.75;entryDx=0;entryDy=0;exitX=0;exitY=0.5;exitDx=0;exitDy=0;" parent="1" source="lzOb1V3oi55egU45rJ-Z-50" target="2" edge="1">
          <mxGeometry width="50" height="50" relative="1" as="geometry">
            <mxPoint x="52" y="766" as="sourcePoint" />
            <mxPoint x="102" y="716" as="targetPoint" />
            <Array as="points">
              <mxPoint x="-31" y="707" />
              <mxPoint x="-31" y="330" />
            </Array>
          </mxGeometry>
        </mxCell>
        <mxCell id="lzOb1V3oi55egU45rJ-Z-65" value="Ссылка" style="ellipse;whiteSpace=wrap;html=1;" parent="1" vertex="1">
          <mxGeometry x="-359" y="-119" width="130" height="50" as="geometry" />
        </mxCell>
        <mxCell id="lzOb1V3oi55egU45rJ-Z-66" value="Тип" style="ellipse;whiteSpace=wrap;html=1;" parent="1" vertex="1">
          <mxGeometry x="-585" y="-76" width="130" height="50" as="geometry" />
        </mxCell>
        <mxCell id="lzOb1V3oi55egU45rJ-Z-67" value="id" style="ellipse;whiteSpace=wrap;html=1;" parent="1" vertex="1">
          <mxGeometry x="-362" y="-34" width="130" height="50" as="geometry" />
        </mxCell>
        <mxCell id="lzOb1V3oi55egU45rJ-Z-68" value="" style="endArrow=classic;html=1;rounded=0;entryX=0;entryY=0.5;entryDx=0;entryDy=0;" parent="1" edge="1">
          <mxGeometry width="50" height="50" relative="1" as="geometry">
            <mxPoint x="-402" y="-94" as="sourcePoint" />
            <mxPoint x="-359" y="-94" as="targetPoint" />
          </mxGeometry>
        </mxCell>
        <mxCell id="lzOb1V3oi55egU45rJ-Z-70" value="" style="endArrow=classic;html=1;rounded=0;entryX=1;entryY=0.5;entryDx=0;entryDy=0;" parent="1" target="lzOb1V3oi55egU45rJ-Z-66" edge="1">
          <mxGeometry width="50" height="50" relative="1" as="geometry">
            <mxPoint x="-403" y="-51" as="sourcePoint" />
            <mxPoint x="-389" y="-17" as="targetPoint" />
          </mxGeometry>
        </mxCell>
        <mxCell id="lzOb1V3oi55egU45rJ-Z-71" value="&lt;b&gt;Вложение&lt;/b&gt;" style="whiteSpace=wrap;html=1;" parent="1" vertex="1">
          <mxGeometry x="-463" y="27.5" width="120" height="60" as="geometry" />
        </mxCell>
        <mxCell id="lzOb1V3oi55egU45rJ-Z-72" value="" style="endArrow=classic;html=1;rounded=0;exitX=0.5;exitY=0;exitDx=0;exitDy=0;" parent="1" source="mRLEdCKrSsYtnquP3Ihm-72" target="lzOb1V3oi55egU45rJ-Z-71" edge="1">
          <mxGeometry width="50" height="50" relative="1" as="geometry">
            <mxPoint x="-230" y="96" as="sourcePoint" />
            <mxPoint x="-400" y="93" as="targetPoint" />
          </mxGeometry>
        </mxCell>
        <mxCell id="Dbhhd53ervG1byrnSNou-47" value="Пароль" style="ellipse;whiteSpace=wrap;html=1;" vertex="1" parent="1">
          <mxGeometry x="-19" y="522" width="130" height="50" as="geometry" />
        </mxCell>
        <mxCell id="Dbhhd53ervG1byrnSNou-48" value="N" style="text;html=1;align=center;verticalAlign=middle;resizable=0;points=[];autosize=1;strokeColor=none;fillColor=none;" vertex="1" parent="1">
          <mxGeometry x="221.5" y="330" width="27" height="25" as="geometry" />
        </mxCell>
        <mxCell id="Dbhhd53ervG1byrnSNou-49" value="1" style="text;html=1;align=center;verticalAlign=middle;resizable=0;points=[];autosize=1;strokeColor=none;fillColor=none;" vertex="1" parent="1">
          <mxGeometry x="-401" y="87.5" width="25" height="25" as="geometry" />
        </mxCell>
        <mxCell id="Dbhhd53ervG1byrnSNou-50" value="" style="endArrow=classic;html=1;rounded=0;entryX=0;entryY=0.5;entryDx=0;entryDy=0;" edge="1" parent="1" target="lzOb1V3oi55egU45rJ-Z-67">
          <mxGeometry width="50" height="50" relative="1" as="geometry">
            <mxPoint x="-401" y="-9" as="sourcePoint" />
            <mxPoint x="-349" y="-84" as="targetPoint" />
          </mxGeometry>
        </mxCell>
        <mxCell id="Dbhhd53ervG1byrnSNou-51" value="" style="endArrow=none;html=1;rounded=0;" edge="1" parent="1" target="lzOb1V3oi55egU45rJ-Z-71">
          <mxGeometry width="50" height="50" relative="1" as="geometry">
            <mxPoint x="-401" y="-93" as="sourcePoint" />
            <mxPoint x="-205" y="-91" as="targetPoint" />
          </mxGeometry>
        </mxCell>
        <mxCell id="Dbhhd53ervG1byrnSNou-52" value="Имеет" style="rhombus;whiteSpace=wrap;html=1;" vertex="1" parent="1">
          <mxGeometry x="467" y="163" width="80" height="50" as="geometry" />
        </mxCell>
        <mxCell id="Dbhhd53ervG1byrnSNou-53" value="" style="endArrow=classic;html=1;rounded=0;entryX=1;entryY=0.5;entryDx=0;entryDy=0;exitX=0;exitY=0.5;exitDx=0;exitDy=0;" edge="1" parent="1" source="Dbhhd53ervG1byrnSNou-52" target="lzOb1V3oi55egU45rJ-Z-71">
          <mxGeometry width="50" height="50" relative="1" as="geometry">
            <mxPoint x="359" y="267" as="sourcePoint" />
            <mxPoint x="409" y="217" as="targetPoint" />
            <Array as="points">
              <mxPoint x="248" y="188" />
              <mxPoint x="246" y="58" />
            </Array>
          </mxGeometry>
        </mxCell>
        <mxCell id="Dbhhd53ervG1byrnSNou-54" value="" style="endArrow=classic;html=1;rounded=0;exitX=0.25;exitY=0;exitDx=0;exitDy=0;entryX=1;entryY=0.5;entryDx=0;entryDy=0;" edge="1" parent="1" source="31" target="Dbhhd53ervG1byrnSNou-52">
          <mxGeometry width="50" height="50" relative="1" as="geometry">
            <mxPoint x="380" y="223" as="sourcePoint" />
            <mxPoint x="430" y="173" as="targetPoint" />
            <Array as="points">
              <mxPoint x="590" y="188" />
            </Array>
          </mxGeometry>
        </mxCell>
        <mxCell id="Dbhhd53ervG1byrnSNou-55" value="1" style="text;html=1;align=center;verticalAlign=middle;resizable=0;points=[];autosize=1;strokeColor=none;fillColor=none;" vertex="1" parent="1">
          <mxGeometry x="564" y="260" width="25" height="25" as="geometry" />
        </mxCell>
        <mxCell id="Dbhhd53ervG1byrnSNou-56" value="1" style="text;html=1;align=center;verticalAlign=middle;resizable=0;points=[];autosize=1;strokeColor=none;fillColor=none;" vertex="1" parent="1">
          <mxGeometry x="-344" y="60.5" width="25" height="25" as="geometry" />
        </mxCell>
        <mxCell id="Dbhhd53ervG1byrnSNou-58" value="Пишет" style="rhombus;whiteSpace=wrap;html=1;" vertex="1" parent="1">
          <mxGeometry x="269" y="205" width="80" height="50" as="geometry" />
        </mxCell>
        <mxCell id="Dbhhd53ervG1byrnSNou-60" value="" style="endArrow=classic;html=1;rounded=0;exitX=0.75;exitY=0;exitDx=0;exitDy=0;entryX=0;entryY=0.5;entryDx=0;entryDy=0;" edge="1" parent="1" source="2" target="Dbhhd53ervG1byrnSNou-58">
          <mxGeometry width="50" height="50" relative="1" as="geometry">
            <mxPoint x="409" y="231" as="sourcePoint" />
            <mxPoint x="459" y="181" as="targetPoint" />
            <Array as="points">
              <mxPoint x="193" y="230" />
            </Array>
          </mxGeometry>
        </mxCell>
        <mxCell id="Dbhhd53ervG1byrnSNou-61" value="" style="endArrow=classic;html=1;rounded=0;exitX=0.5;exitY=0;exitDx=0;exitDy=0;entryX=0;entryY=0.5;entryDx=0;entryDy=0;" edge="1" parent="1" source="Dbhhd53ervG1byrnSNou-58" target="Jvw1sEuxNgnwTNWIgOwx-73">
          <mxGeometry width="50" height="50" relative="1" as="geometry">
            <mxPoint x="409" y="231" as="sourcePoint" />
            <mxPoint x="459" y="181" as="targetPoint" />
            <Array as="points">
              <mxPoint x="309" y="73" />
            </Array>
          </mxGeometry>
        </mxCell>
        <mxCell id="Dbhhd53ervG1byrnSNou-62" value="1" style="text;html=1;align=center;verticalAlign=middle;resizable=0;points=[];autosize=1;strokeColor=none;fillColor=none;" vertex="1" parent="1">
          <mxGeometry x="196.5" y="260" width="25" height="25" as="geometry" />
        </mxCell>
        <mxCell id="Dbhhd53ervG1byrnSNou-63" value="N" style="text;html=1;align=center;verticalAlign=middle;resizable=0;points=[];autosize=1;strokeColor=none;fillColor=none;" vertex="1" parent="1">
          <mxGeometry x="331" y="78.25" width="27" height="25" as="geometry" />
        </mxCell>
        <mxCell id="Dbhhd53ervG1byrnSNou-64" value="Публикует" style="rhombus;whiteSpace=wrap;html=1;" vertex="1" parent="1">
          <mxGeometry x="579.5" y="48.25" width="80" height="50" as="geometry" />
        </mxCell>
        <mxCell id="Dbhhd53ervG1byrnSNou-65" value="" style="endArrow=classic;html=1;rounded=0;exitX=0.5;exitY=0;exitDx=0;exitDy=0;entryX=0.5;entryY=1;entryDx=0;entryDy=0;" edge="1" parent="1" source="31" target="Dbhhd53ervG1byrnSNou-64">
          <mxGeometry width="50" height="50" relative="1" as="geometry">
            <mxPoint x="403" y="232" as="sourcePoint" />
            <mxPoint x="453" y="182" as="targetPoint" />
          </mxGeometry>
        </mxCell>
        <mxCell id="Dbhhd53ervG1byrnSNou-66" value="" style="endArrow=classic;html=1;rounded=0;entryX=1;entryY=0.5;entryDx=0;entryDy=0;exitX=0;exitY=0.5;exitDx=0;exitDy=0;" edge="1" parent="1" source="Dbhhd53ervG1byrnSNou-64" target="Jvw1sEuxNgnwTNWIgOwx-73">
          <mxGeometry width="50" height="50" relative="1" as="geometry">
            <mxPoint x="403" y="232" as="sourcePoint" />
            <mxPoint x="453" y="182" as="targetPoint" />
          </mxGeometry>
        </mxCell>
        <mxCell id="Dbhhd53ervG1byrnSNou-67" value="1" style="text;html=1;align=center;verticalAlign=middle;resizable=0;points=[];autosize=1;strokeColor=none;fillColor=none;" vertex="1" parent="1">
          <mxGeometry x="598" y="260" width="25" height="25" as="geometry" />
        </mxCell>
        <mxCell id="Dbhhd53ervG1byrnSNou-68" value="N" style="text;html=1;align=center;verticalAlign=middle;resizable=0;points=[];autosize=1;strokeColor=none;fillColor=none;" vertex="1" parent="1">
          <mxGeometry x="483" y="78.25" width="27" height="25" as="geometry" />
        </mxCell>
        <mxCell id="Dbhhd53ervG1byrnSNou-69" value="&lt;b&gt;Комментарий&lt;/b&gt;" style="whiteSpace=wrap;html=1;" vertex="1" parent="1">
          <mxGeometry x="-59" y="-22.5" width="120" height="60" as="geometry" />
        </mxCell>
        <mxCell id="Dbhhd53ervG1byrnSNou-70" value="id" style="ellipse;whiteSpace=wrap;html=1;" vertex="1" parent="1">
          <mxGeometry x="-167" y="-84" width="130" height="50" as="geometry" />
        </mxCell>
        <mxCell id="Dbhhd53ervG1byrnSNou-71" value="Текст" style="ellipse;whiteSpace=wrap;html=1;" vertex="1" parent="1">
          <mxGeometry x="37" y="-122" width="130" height="50" as="geometry" />
        </mxCell>
        <mxCell id="Dbhhd53ervG1byrnSNou-72" value="Дата создания" style="ellipse;whiteSpace=wrap;html=1;" vertex="1" parent="1">
          <mxGeometry x="-173" y="-187" width="130" height="50" as="geometry" />
        </mxCell>
        <mxCell id="Dbhhd53ervG1byrnSNou-73" value="" style="endArrow=classic;html=1;rounded=0;entryX=1;entryY=0.5;entryDx=0;entryDy=0;" edge="1" parent="1" source="Dbhhd53ervG1byrnSNou-69" target="Dbhhd53ervG1byrnSNou-72">
          <mxGeometry width="50" height="50" relative="1" as="geometry">
            <mxPoint x="-524" y="-13" as="sourcePoint" />
            <mxPoint x="-576" y="-232" as="targetPoint" />
            <Array as="points">
              <mxPoint x="1" y="-162" />
            </Array>
          </mxGeometry>
        </mxCell>
        <mxCell id="Dbhhd53ervG1byrnSNou-74" value="" style="endArrow=classic;html=1;rounded=0;entryX=0;entryY=0.5;entryDx=0;entryDy=0;" edge="1" parent="1">
          <mxGeometry width="50" height="50" relative="1" as="geometry">
            <mxPoint x="1" y="-97" as="sourcePoint" />
            <mxPoint x="36.00000000001228" y="-97" as="targetPoint" />
          </mxGeometry>
        </mxCell>
        <mxCell id="Dbhhd53ervG1byrnSNou-75" value="" style="endArrow=classic;html=1;rounded=0;entryX=1;entryY=0.5;entryDx=0;entryDy=0;" edge="1" parent="1" target="Dbhhd53ervG1byrnSNou-70">
          <mxGeometry width="50" height="50" relative="1" as="geometry">
            <mxPoint y="-59" as="sourcePoint" />
            <mxPoint x="91" y="-81" as="targetPoint" />
          </mxGeometry>
        </mxCell>
        <mxCell id="Dbhhd53ervG1byrnSNou-79" value="Пишет" style="rhombus;whiteSpace=wrap;html=1;" vertex="1" parent="1">
          <mxGeometry x="-39" y="203" width="80" height="50" as="geometry" />
        </mxCell>
        <mxCell id="Dbhhd53ervG1byrnSNou-80" value="1" style="text;html=1;align=center;verticalAlign=middle;resizable=0;points=[];autosize=1;strokeColor=none;fillColor=none;" vertex="1" parent="1">
          <mxGeometry x="106" y="258" width="25" height="25" as="geometry" />
        </mxCell>
        <mxCell id="Dbhhd53ervG1byrnSNou-81" value="" style="endArrow=classic;html=1;rounded=0;exitX=0.25;exitY=0;exitDx=0;exitDy=0;entryX=1;entryY=0.5;entryDx=0;entryDy=0;" edge="1" parent="1" source="2" target="Dbhhd53ervG1byrnSNou-79">
          <mxGeometry width="50" height="50" relative="1" as="geometry">
            <mxPoint x="116" y="106" as="sourcePoint" />
            <mxPoint x="166" y="56" as="targetPoint" />
            <Array as="points">
              <mxPoint x="133" y="227" />
            </Array>
          </mxGeometry>
        </mxCell>
        <mxCell id="Dbhhd53ervG1byrnSNou-82" value="" style="endArrow=classic;html=1;rounded=0;exitX=0.5;exitY=0;exitDx=0;exitDy=0;entryX=0.5;entryY=1;entryDx=0;entryDy=0;" edge="1" parent="1" source="Dbhhd53ervG1byrnSNou-79" target="Dbhhd53ervG1byrnSNou-69">
          <mxGeometry width="50" height="50" relative="1" as="geometry">
            <mxPoint x="116" y="114" as="sourcePoint" />
            <mxPoint x="166" y="64" as="targetPoint" />
          </mxGeometry>
        </mxCell>
        <mxCell id="Dbhhd53ervG1byrnSNou-83" value="N" style="text;html=1;align=center;verticalAlign=middle;resizable=0;points=[];autosize=1;strokeColor=none;fillColor=none;" vertex="1" parent="1">
          <mxGeometry x="-27" y="56" width="27" height="25" as="geometry" />
        </mxCell>
        <mxCell id="Dbhhd53ervG1byrnSNou-85" value="Содержит" style="rhombus;whiteSpace=wrap;html=1;" vertex="1" parent="1">
          <mxGeometry x="135" y="115" width="80" height="50" as="geometry" />
        </mxCell>
        <mxCell id="Dbhhd53ervG1byrnSNou-86" value="" style="endArrow=classic;html=1;rounded=0;entryX=1;entryY=0.5;entryDx=0;entryDy=0;exitX=0.5;exitY=1;exitDx=0;exitDy=0;" edge="1" parent="1" source="Jvw1sEuxNgnwTNWIgOwx-73" target="Dbhhd53ervG1byrnSNou-85">
          <mxGeometry width="50" height="50" relative="1" as="geometry">
            <mxPoint x="116" y="148" as="sourcePoint" />
            <mxPoint x="166" y="98" as="targetPoint" />
            <Array as="points">
              <mxPoint x="421" y="142" />
            </Array>
          </mxGeometry>
        </mxCell>
        <mxCell id="Dbhhd53ervG1byrnSNou-88" value="" style="endArrow=classic;html=1;rounded=0;entryX=0.75;entryY=1;entryDx=0;entryDy=0;exitX=0;exitY=0.5;exitDx=0;exitDy=0;" edge="1" parent="1" source="Dbhhd53ervG1byrnSNou-85" target="Dbhhd53ervG1byrnSNou-69">
          <mxGeometry width="50" height="50" relative="1" as="geometry">
            <mxPoint x="116" y="148" as="sourcePoint" />
            <mxPoint x="166" y="98" as="targetPoint" />
            <Array as="points">
              <mxPoint x="31" y="140" />
            </Array>
          </mxGeometry>
        </mxCell>
        <mxCell id="Dbhhd53ervG1byrnSNou-89" value="N" style="text;html=1;align=center;verticalAlign=middle;resizable=0;points=[];autosize=1;strokeColor=none;fillColor=none;" vertex="1" parent="1">
          <mxGeometry x="32.5" y="56" width="27" height="25" as="geometry" />
        </mxCell>
        <mxCell id="Dbhhd53ervG1byrnSNou-90" value="1" style="text;html=1;align=center;verticalAlign=middle;resizable=0;points=[];autosize=1;strokeColor=none;fillColor=none;" vertex="1" parent="1">
          <mxGeometry x="396" y="103.25" width="25" height="25" as="geometry" />
        </mxCell>
        <mxCell id="Dbhhd53ervG1byrnSNou-168" style="edgeStyle=orthogonalEdgeStyle;rounded=0;orthogonalLoop=1;jettySize=auto;html=1;exitX=0.5;exitY=0;exitDx=0;exitDy=0;entryX=1;entryY=0.5;entryDx=0;entryDy=0;" edge="1" parent="1" source="Dbhhd53ervG1byrnSNou-91" target="Dbhhd53ervG1byrnSNou-164">
          <mxGeometry relative="1" as="geometry" />
        </mxCell>
        <mxCell id="Dbhhd53ervG1byrnSNou-91" value="&lt;b&gt;Чат&lt;/b&gt;" style="whiteSpace=wrap;html=1;" vertex="1" parent="1">
          <mxGeometry x="-345.5" y="283" width="120" height="60" as="geometry" />
        </mxCell>
        <mxCell id="Dbhhd53ervG1byrnSNou-92" style="edgeStyle=none;html=1;exitX=0.5;exitY=1;exitDx=0;exitDy=0;entryX=0;entryY=0.5;entryDx=0;entryDy=0;endArrow=block;endFill=1;rounded=0;" edge="1" parent="1" target="Dbhhd53ervG1byrnSNou-96">
          <mxGeometry relative="1" as="geometry">
            <Array as="points">
              <mxPoint x="-286.5" y="377" />
            </Array>
            <mxPoint x="-286.5" y="342" as="sourcePoint" />
          </mxGeometry>
        </mxCell>
        <mxCell id="Dbhhd53ervG1byrnSNou-96" value="id" style="ellipse;whiteSpace=wrap;html=1;" vertex="1" parent="1">
          <mxGeometry x="-239.5" y="352" width="130" height="50" as="geometry" />
        </mxCell>
        <mxCell id="Dbhhd53ervG1byrnSNou-101" value="" style="endArrow=classic;html=1;rounded=0;entryX=1;entryY=0.5;entryDx=0;entryDy=0;" edge="1" parent="1" source="2" target="Dbhhd53ervG1byrnSNou-91">
          <mxGeometry width="50" height="50" relative="1" as="geometry">
            <mxPoint x="-81" y="336" as="sourcePoint" />
            <mxPoint x="-31" y="286" as="targetPoint" />
          </mxGeometry>
        </mxCell>
        <mxCell id="Dbhhd53ervG1byrnSNou-102" value="N" style="text;html=1;align=center;verticalAlign=middle;resizable=0;points=[];autosize=1;strokeColor=none;fillColor=none;" vertex="1" parent="1">
          <mxGeometry x="-220" y="285" width="27" height="25" as="geometry" />
        </mxCell>
        <mxCell id="Dbhhd53ervG1byrnSNou-103" value="N" style="text;html=1;align=center;verticalAlign=middle;resizable=0;points=[];autosize=1;strokeColor=none;fillColor=none;" vertex="1" parent="1">
          <mxGeometry x="72" y="287" width="27" height="25" as="geometry" />
        </mxCell>
        <mxCell id="Dbhhd53ervG1byrnSNou-180" value="" style="edgeStyle=orthogonalEdgeStyle;rounded=0;orthogonalLoop=1;jettySize=auto;html=1;" edge="1" parent="1" source="Dbhhd53ervG1byrnSNou-136" target="Dbhhd53ervG1byrnSNou-179">
          <mxGeometry relative="1" as="geometry" />
        </mxCell>
        <mxCell id="Dbhhd53ervG1byrnSNou-136" value="&lt;b&gt;Сообщение&lt;/b&gt;" style="whiteSpace=wrap;html=1;" vertex="1" parent="1">
          <mxGeometry x="-563.5" y="288" width="120" height="60" as="geometry" />
        </mxCell>
        <mxCell id="Dbhhd53ervG1byrnSNou-137" style="edgeStyle=none;html=1;exitX=0.5;exitY=1;exitDx=0;exitDy=0;entryX=0;entryY=0.5;entryDx=0;entryDy=0;endArrow=block;endFill=1;rounded=0;" edge="1" parent="1" target="Dbhhd53ervG1byrnSNou-141">
          <mxGeometry relative="1" as="geometry">
            <Array as="points">
              <mxPoint x="-504.5" y="382" />
            </Array>
            <mxPoint x="-504.5" y="347" as="sourcePoint" />
          </mxGeometry>
        </mxCell>
        <mxCell id="Dbhhd53ervG1byrnSNou-139" style="edgeStyle=none;rounded=0;html=1;exitX=0.5;exitY=1;exitDx=0;exitDy=0;entryX=1;entryY=0.5;entryDx=0;entryDy=0;endArrow=block;endFill=1;" edge="1" parent="1">
          <mxGeometry relative="1" as="geometry">
            <Array as="points">
              <mxPoint x="-504.5" y="412" />
            </Array>
            <mxPoint x="-504.5" y="347" as="sourcePoint" />
            <mxPoint x="-556.5" y="412" as="targetPoint" />
          </mxGeometry>
        </mxCell>
        <mxCell id="Dbhhd53ervG1byrnSNou-141" value="id" style="ellipse;whiteSpace=wrap;html=1;" vertex="1" parent="1">
          <mxGeometry x="-457.5" y="357" width="130" height="50" as="geometry" />
        </mxCell>
        <mxCell id="Dbhhd53ervG1byrnSNou-142" value="Дата создания" style="ellipse;whiteSpace=wrap;html=1;" vertex="1" parent="1">
          <mxGeometry x="-686" y="388" width="130" height="50" as="geometry" />
        </mxCell>
        <mxCell id="Dbhhd53ervG1byrnSNou-162" value="" style="endArrow=classic;html=1;rounded=0;entryX=0.5;entryY=0;entryDx=0;entryDy=0;exitX=0;exitY=0.5;exitDx=0;exitDy=0;" edge="1" parent="1" source="Dbhhd53ervG1byrnSNou-79" target="Dbhhd53ervG1byrnSNou-136">
          <mxGeometry width="50" height="50" relative="1" as="geometry">
            <mxPoint x="-159" y="264" as="sourcePoint" />
            <mxPoint x="-109" y="214" as="targetPoint" />
            <Array as="points">
              <mxPoint x="-503" y="231" />
            </Array>
          </mxGeometry>
        </mxCell>
        <mxCell id="Dbhhd53ervG1byrnSNou-163" value="N" style="text;html=1;align=center;verticalAlign=middle;resizable=0;points=[];autosize=1;strokeColor=none;fillColor=none;" vertex="1" parent="1">
          <mxGeometry x="-500" y="260" width="27" height="25" as="geometry" />
        </mxCell>
        <mxCell id="Dbhhd53ervG1byrnSNou-167" value="" style="edgeStyle=orthogonalEdgeStyle;rounded=0;orthogonalLoop=1;jettySize=auto;html=1;entryX=0.75;entryY=0;entryDx=0;entryDy=0;" edge="1" parent="1" source="Dbhhd53ervG1byrnSNou-164" target="Dbhhd53ervG1byrnSNou-136">
          <mxGeometry relative="1" as="geometry" />
        </mxCell>
        <mxCell id="Dbhhd53ervG1byrnSNou-164" value="Содержит" style="rhombus;whiteSpace=wrap;html=1;" vertex="1" parent="1">
          <mxGeometry x="-436" y="230" width="80" height="50" as="geometry" />
        </mxCell>
        <mxCell id="Dbhhd53ervG1byrnSNou-169" value="1" style="text;html=1;align=center;verticalAlign=middle;resizable=0;points=[];autosize=1;strokeColor=none;fillColor=none;" vertex="1" parent="1">
          <mxGeometry x="-283" y="258" width="25" height="25" as="geometry" />
        </mxCell>
        <mxCell id="Dbhhd53ervG1byrnSNou-170" value="Текст" style="ellipse;whiteSpace=wrap;html=1;" vertex="1" parent="1">
          <mxGeometry x="-455" y="424" width="130" height="50" as="geometry" />
        </mxCell>
        <mxCell id="Dbhhd53ervG1byrnSNou-171" value="" style="endArrow=classic;html=1;rounded=0;entryX=0;entryY=0.5;entryDx=0;entryDy=0;exitX=0.5;exitY=1;exitDx=0;exitDy=0;" edge="1" parent="1" source="Dbhhd53ervG1byrnSNou-136" target="Dbhhd53ervG1byrnSNou-170">
          <mxGeometry width="50" height="50" relative="1" as="geometry">
            <mxPoint x="-506" y="411" as="sourcePoint" />
            <mxPoint x="-278" y="346" as="targetPoint" />
            <Array as="points">
              <mxPoint x="-504" y="449" />
            </Array>
          </mxGeometry>
        </mxCell>
        <mxCell id="Dbhhd53ervG1byrnSNou-172" value="&lt;b&gt;Стикер&lt;/b&gt;" style="whiteSpace=wrap;html=1;" vertex="1" parent="1">
          <mxGeometry x="-929.5" y="288" width="120" height="60" as="geometry" />
        </mxCell>
        <mxCell id="Dbhhd53ervG1byrnSNou-173" style="edgeStyle=none;html=1;exitX=0.491;exitY=0.998;exitDx=0;exitDy=0;entryX=0;entryY=0.5;entryDx=0;entryDy=0;endArrow=block;endFill=1;rounded=0;exitPerimeter=0;" edge="1" parent="1" target="Dbhhd53ervG1byrnSNou-175" source="Dbhhd53ervG1byrnSNou-172">
          <mxGeometry relative="1" as="geometry">
            <Array as="points">
              <mxPoint x="-870.5" y="379" />
            </Array>
            <mxPoint x="-870.5" y="344" as="sourcePoint" />
          </mxGeometry>
        </mxCell>
        <mxCell id="Dbhhd53ervG1byrnSNou-174" style="edgeStyle=none;rounded=0;html=1;exitX=0.5;exitY=1;exitDx=0;exitDy=0;entryX=1;entryY=0.5;entryDx=0;entryDy=0;endArrow=block;endFill=1;" edge="1" parent="1">
          <mxGeometry relative="1" as="geometry">
            <Array as="points">
              <mxPoint x="-870.5" y="414" />
            </Array>
            <mxPoint x="-870.5" y="349" as="sourcePoint" />
            <mxPoint x="-922.5" y="414" as="targetPoint" />
          </mxGeometry>
        </mxCell>
        <mxCell id="Dbhhd53ervG1byrnSNou-175" value="id" style="ellipse;whiteSpace=wrap;html=1;" vertex="1" parent="1">
          <mxGeometry x="-823.5" y="354" width="130" height="50" as="geometry" />
        </mxCell>
        <mxCell id="Dbhhd53ervG1byrnSNou-176" value="Ссылка" style="ellipse;whiteSpace=wrap;html=1;" vertex="1" parent="1">
          <mxGeometry x="-1052" y="389" width="130" height="50" as="geometry" />
        </mxCell>
        <mxCell id="Dbhhd53ervG1byrnSNou-181" value="" style="edgeStyle=orthogonalEdgeStyle;rounded=0;orthogonalLoop=1;jettySize=auto;html=1;" edge="1" parent="1" source="Dbhhd53ervG1byrnSNou-179" target="Dbhhd53ervG1byrnSNou-172">
          <mxGeometry relative="1" as="geometry" />
        </mxCell>
        <mxCell id="Dbhhd53ervG1byrnSNou-179" value="Содержит" style="rhombus;whiteSpace=wrap;html=1;" vertex="1" parent="1">
          <mxGeometry x="-723" y="293" width="80" height="50" as="geometry" />
        </mxCell>
        <mxCell id="Dbhhd53ervG1byrnSNou-182" value="1" style="text;html=1;align=center;verticalAlign=middle;resizable=0;points=[];autosize=1;strokeColor=none;fillColor=none;" vertex="1" parent="1">
          <mxGeometry x="-589.5" y="293" width="25" height="26" as="geometry" />
        </mxCell>
        <mxCell id="Dbhhd53ervG1byrnSNou-183" value="N" style="text;html=1;align=center;verticalAlign=middle;resizable=0;points=[];autosize=1;strokeColor=none;fillColor=none;" vertex="1" parent="1">
          <mxGeometry x="-809.5" y="290" width="27" height="25" as="geometry" />
        </mxCell>
        <mxCell id="Dbhhd53ervG1byrnSNou-184" value="Содержит" style="rhombus;whiteSpace=wrap;html=1;" vertex="1" parent="1">
          <mxGeometry x="-574" y="163" width="80" height="50" as="geometry" />
        </mxCell>
        <mxCell id="Dbhhd53ervG1byrnSNou-185" value="" style="endArrow=classic;html=1;rounded=0;entryX=0.5;entryY=1;entryDx=0;entryDy=0;exitX=0.25;exitY=0;exitDx=0;exitDy=0;" edge="1" parent="1" source="Dbhhd53ervG1byrnSNou-136" target="Dbhhd53ervG1byrnSNou-184">
          <mxGeometry width="50" height="50" relative="1" as="geometry">
            <mxPoint x="-415" y="282" as="sourcePoint" />
            <mxPoint x="-365" y="232" as="targetPoint" />
          </mxGeometry>
        </mxCell>
        <mxCell id="Dbhhd53ervG1byrnSNou-186" value="" style="endArrow=classic;html=1;rounded=0;entryX=0;entryY=0.5;entryDx=0;entryDy=0;exitX=0.5;exitY=0;exitDx=0;exitDy=0;" edge="1" parent="1" source="Dbhhd53ervG1byrnSNou-184" target="lzOb1V3oi55egU45rJ-Z-71">
          <mxGeometry width="50" height="50" relative="1" as="geometry">
            <mxPoint x="-415" y="282" as="sourcePoint" />
            <mxPoint x="-365" y="232" as="targetPoint" />
            <Array as="points">
              <mxPoint x="-534" y="58" />
            </Array>
          </mxGeometry>
        </mxCell>
        <mxCell id="Dbhhd53ervG1byrnSNou-187" value="N" style="text;html=1;align=center;verticalAlign=middle;resizable=0;points=[];autosize=1;strokeColor=none;fillColor=none;" vertex="1" parent="1">
          <mxGeometry x="-563.5" y="268" width="27" height="25" as="geometry" />
        </mxCell>
        <mxCell id="Dbhhd53ervG1byrnSNou-188" value="N" style="text;html=1;align=center;verticalAlign=middle;resizable=0;points=[];autosize=1;strokeColor=none;fillColor=none;" vertex="1" parent="1">
          <mxGeometry x="-494" y="62.5" width="27" height="25" as="geometry" />
        </mxCell>
        <mxCell id="Dbhhd53ervG1byrnSNou-189" value="Лайкает" style="rhombus;whiteSpace=wrap;html=1;" vertex="1" parent="1">
          <mxGeometry x="361.5" y="205" width="80" height="50" as="geometry" />
        </mxCell>
        <mxCell id="Dbhhd53ervG1byrnSNou-190" value="" style="endArrow=classic;html=1;rounded=0;exitX=1;exitY=0;exitDx=0;exitDy=0;entryX=0.5;entryY=1;entryDx=0;entryDy=0;" edge="1" parent="1" target="Dbhhd53ervG1byrnSNou-189">
          <mxGeometry width="50" height="50" relative="1" as="geometry">
            <mxPoint x="223" y="294" as="sourcePoint" />
            <mxPoint x="404" y="264" as="targetPoint" />
            <Array as="points">
              <mxPoint x="402" y="291" />
            </Array>
          </mxGeometry>
        </mxCell>
        <mxCell id="Dbhhd53ervG1byrnSNou-192" value="" style="endArrow=classic;html=1;rounded=0;exitX=0.5;exitY=0;exitDx=0;exitDy=0;" edge="1" parent="1" source="Dbhhd53ervG1byrnSNou-189">
          <mxGeometry width="50" height="50" relative="1" as="geometry">
            <mxPoint x="157" y="177" as="sourcePoint" />
            <mxPoint x="448" y="104" as="targetPoint" />
            <Array as="points">
              <mxPoint x="402" y="166" />
              <mxPoint x="448" y="166" />
            </Array>
          </mxGeometry>
        </mxCell>
        <mxCell id="Dbhhd53ervG1byrnSNou-194" value="N" style="text;html=1;align=center;verticalAlign=middle;resizable=0;points=[];autosize=1;strokeColor=none;fillColor=none;" vertex="1" parent="1">
          <mxGeometry x="453.5" y="105" width="27" height="25" as="geometry" />
        </mxCell>
        <mxCell id="Dbhhd53ervG1byrnSNou-195" value="N" style="text;html=1;align=center;verticalAlign=middle;resizable=0;points=[];autosize=1;strokeColor=none;fillColor=none;" vertex="1" parent="1">
          <mxGeometry x="220.5" y="268" width="27" height="25" as="geometry" />
        </mxCell>
      </root>
    </mxGraphModel>
  </diagram>
</mxfile>
